<svg xmlns="http://www.w3.org/2000/svg" width="1080" height="1920" viewBox="0 0 1080 1920">
  <defs>
    <linearGradient id="bg" x1="0" y1="0" x2="0" y2="1">
      <stop offset="0" stop-color="#25060b"/>
      <stop offset="0.42" stop-color="#12070c"/>
      <stop offset="1" stop-color="#090d18"/>
    </linearGradient>
    <radialGradient id="centerGlow" cx="50%" cy="34%" r="62%">
      <stop offset="0" stop-color="#ff5c22" stop-opacity="0.16"/>
      <stop offset="0.45" stop-color="#4b0c12" stop-opacity="0.12"/>
      <stop offset="1" stop-color="#000000" stop-opacity="0"/>
    </radialGradient>
    <radialGradient id="vignette" cx="50%" cy="46%" r="64%">
      <stop offset="0" stop-color="#000000" stop-opacity="0"/>
      <stop offset="0.62" stop-color="#000000" stop-opacity="0.22"/>
      <stop offset="1" stop-color="#000000" stop-opacity="0.72"/>
    </radialGradient>
    <linearGradient id="wood" x1="0" y1="0" x2="1" y2="1">
      <stop offset="0" stop-color="#2b1110"/>
      <stop offset="0.55" stop-color="#4b2116"/>
      <stop offset="1" stop-color="#140808"/>
    </linearGradient>
    <linearGradient id="shelf" x1="0" y1="0" x2="1" y2="0">
      <stop offset="0" stop-color="#160808"/>
      <stop offset="0.5" stop-color="#9f5d22"/>
      <stop offset="1" stop-color="#160808"/>
    </linearGradient>
    <linearGradient id="lava" x1="0" y1="0" x2="1" y2="0">
      <stop offset="0" stop-color="#ff3b1f"/>
      <stop offset="0.5" stop-color="#ffd35a"/>
      <stop offset="1" stop-color="#ff6b35"/>
    </linearGradient>
    <filter id="soft" x="-30%" y="-30%" width="160%" height="160%">
      <feGaussianBlur stdDeviation="9"/>
    </filter>
    <symbol id="bottle" viewBox="0 0 42 118">
      <path d="M16 6h10v24c0 7 9 10 9 22v53c0 6-4 9-9 9H16c-5 0-9-3-9-9V52c0-12 9-15 9-22V6z" fill="#10080b" stroke="#ffb24a" stroke-opacity="0.18" stroke-width="2"/>
      <path d="M14 57h14v28H14z" fill="#ff6b35" opacity="0.16"/>
      <circle cx="21" cy="73" r="9" fill="#ffc15a" opacity="0.13"/>
    </symbol>
  </defs>
  <rect width="1080" height="1920" fill="url(#bg)"/>
  <rect width="1080" height="1920" fill="url(#centerGlow)"/>
  <g opacity="0.16" stroke="#ffc46b" stroke-width="2">
    <path d="M60 0L0 1920"/><path d="M250 0L140 1920"/><path d="M820 0L940 1920"/><path d="M1020 0L1080 1920"/>
  </g>
  <rect x="100" y="300" width="880" height="650" rx="42" fill="#09070b" opacity="0.54"/>
  <rect x="100" y="300" width="880" height="650" rx="42" fill="none" stroke="#ffc46b" stroke-opacity="0.14" stroke-width="4"/>
  <path d="M180 730V495c0-96 60-156 140-156s140 60 140 156v235" fill="none" stroke="#ff6b35" stroke-opacity="0.12" stroke-width="5"/>
  <path d="M620 730V495c0-96 60-156 140-156s140 60 140 156v235" fill="none" stroke="#ff6b35" stroke-opacity="0.12" stroke-width="5"/>
  <g>
    <rect x="145" y="430" width="300" height="10" rx="5" fill="url(#shelf)"/><rect x="145" y="565" width="300" height="10" rx="5" fill="url(#shelf)"/><rect x="145" y="700" width="300" height="10" rx="5" fill="url(#shelf)"/>
    <rect x="635" y="430" width="300" height="10" rx="5" fill="url(#shelf)"/><rect x="635" y="565" width="300" height="10" rx="5" fill="url(#shelf)"/><rect x="635" y="700" width="300" height="10" rx="5" fill="url(#shelf)"/>
    <use href="#bottle" x="170" y="318" width="32" height="90"/><use href="#bottle" x="218" y="330" width="38" height="98"/><use href="#bottle" x="278" y="312" width="34" height="104"/><use href="#bottle" x="335" y="340" width="40" height="90"/><use href="#bottle" x="385" y="324" width="32" height="102"/>
    <use href="#bottle" x="655" y="454" width="40" height="100"/><use href="#bottle" x="715" y="472" width="32" height="82"/><use href="#bottle" x="775" y="450" width="40" height="104"/><use href="#bottle" x="840" y="468" width="36" height="86"/><use href="#bottle" x="890" y="452" width="32" height="98"/>
    <use href="#bottle" x="178" y="590" width="32" height="92"/><use href="#bottle" x="230" y="584" width="40" height="102"/><use href="#bottle" x="292" y="606" width="34" height="78"/><use href="#bottle" x="350" y="588" width="38" height="98"/>
    <use href="#bottle" x="668" y="590" width="32" height="92"/><use href="#bottle" x="720" y="584" width="40" height="102"/><use href="#bottle" x="782" y="606" width="34" height="78"/><use href="#bottle" x="840" y="588" width="38" height="98"/>
  </g>
  <path d="M0 1550C220 1514 396 1492 540 1492s320 22 540 58v370H0z" fill="url(#wood)"/>
  <path d="M0 1548C220 1514 396 1492 540 1492s320 22 540 58" fill="none" stroke="#ffc46b" stroke-opacity="0.22" stroke-width="7"/>
  <g opacity="0.8" stroke="url(#lava)" stroke-width="5" stroke-linecap="round" fill="none">
    <path d="M120 1320l42 50-26 72 72 58"/><path d="M900 1284l-50 62 28 70-92 88"/><path d="M420 1010l48 48-18 44 60 74"/><path d="M640 1080l-42 60 35 48-30 66"/>
  </g>
  <g opacity="0.56">
    <path d="M40 1786c-38-86 22-124 12-202 66 72 82 128 22 202z" fill="#ff6b35"/><path d="M150 1840c-50-96 40-142 10-230 92 82 104 154 24 230z" fill="#ff8b2d"/>
    <path d="M1040 1788c38-86-22-126-12-202-66 72-82 128-22 202z" fill="#ff6b35"/><path d="M930 1844c50-98-40-144-10-232-92 82-104 154-24 232z" fill="#ff8b2d"/>
  </g>
  <rect width="1080" height="1920" fill="url(#vignette)"/>
</svg>
