<svg xmlns="http://www.w3.org/2000/svg" width="1080" height="1920" viewBox="0 0 1080 1920">
  <defs>
    <radialGradient id="vignette" cx="50%" cy="46%" r="64%">
      <stop offset="0" stop-color="#000000" stop-opacity="0"/>
      <stop offset="0.62" stop-color="#000000" stop-opacity="0.22"/>
      <stop offset="1" stop-color="#000000" stop-opacity="0.72"/>
    </radialGradient>
    <linearGradient id="smoke" x1="0" y1="1" x2="0" y2="0">
      <stop offset="0" stop-color="#c9b8a1" stop-opacity="0.2"/>
      <stop offset="1" stop-color="#c9b8a1" stop-opacity="0"/>
    </linearGradient>
    <filter id="blur" x="-20%" y="-20%" width="140%" height="140%">
      <feGaussianBlur stdDeviation="18"/>
    </filter>
  </defs>
  <rect width="1080" height="1920" fill="url(#vignette)"/>
  <g filter="url(#blur)" opacity="0.58">
    <path d="M96 1780c80-130 14-210 88-330 56-92 172-124 218-222-20 162-128 210-116 346 8 86 80 130 22 238z" fill="url(#smoke)"/>
    <path d="M984 1740c-90-118-24-206-110-320-72-96-190-92-242-218 12 150 118 200 100 330-12 92-96 128-38 238z" fill="url(#smoke)"/>
  </g>
  <g opacity="0.72">
    <circle cx="122" cy="444" r="5" fill="#ffdf72"/>
    <circle cx="188" cy="670" r="3" fill="#ff6b35"/>
    <circle cx="856" cy="516" r="4" fill="#ffdf72"/>
    <circle cx="916" cy="738" r="3" fill="#ff6b35"/>
    <circle cx="320" cy="1180" r="3" fill="#ffc46b"/>
    <circle cx="706" cy="1090" r="4" fill="#ff6b35"/>
    <circle cx="538" cy="1386" r="3" fill="#ffc46b"/>
    <circle cx="142" cy="1408" r="3" fill="#ff6b35"/>
    <circle cx="936" cy="1342" r="4" fill="#ffc46b"/>
  </g>
</svg>
